<svg width="1200" height="1668" viewBox="0 0 374 517" fill="none" xmlns="http://www.w3.org/2000/svg">
<path d="M182.209 125.173C200.939 130.543 216.242 138.949 228.119 150.39C239.996 161.831 247.795 175.389 251.518 191.066C255.458 206.623 254.911 223.175 249.879 240.725C244.895 258.105 236.587 272.432 224.954 283.706C213.49 295.028 199.606 302.369 183.302 305.729C167.168 309.138 149.82 308.181 131.258 302.859L64.6889 283.77L115.64 106.084L182.209 125.173ZM139.215 264.599C155.583 269.293 169.606 268.474 181.282 262.144C192.959 255.813 201.144 244.464 205.837 228.096C210.531 211.728 209.628 197.681 203.129 185.956C196.629 174.231 185.196 166.022 168.828 161.329L148.325 155.45L118.713 258.72L139.215 264.599Z" fill="#343434"/>
<path d="M222.654 209.056C241.384 214.427 256.688 222.833 268.564 234.273C280.441 245.714 288.241 259.273 291.963 274.95C295.903 290.506 295.357 307.059 290.324 324.608C285.341 341.989 277.032 356.316 265.399 367.589C253.935 378.911 240.051 386.253 223.748 389.613C207.613 393.021 190.265 392.064 171.703 386.742L105.134 367.654L156.085 189.968L222.654 209.056ZM179.661 348.483C196.029 353.176 210.051 352.358 221.728 346.027C233.404 339.697 241.589 328.347 246.283 311.979C250.976 295.611 250.073 281.565 243.574 269.84C237.075 258.115 225.641 249.906 209.273 245.212L188.771 239.333L159.158 342.604L179.661 348.483Z" fill="#343434"/>
</svg>
